<svg width="798" height="462" viewBox="0 0 798 462" fill="none" xmlns="http://www.w3.org/2000/svg">
<path d="M6.89295 117.968C49.2186 89.048 87.0048 97.424 107.808 140.586C131.461 189.661 152.779 239.861 175.968 291.475C190.254 282.068 192.915 268.45 198.055 256.391C215.66 215.082 233.448 173.851 250.978 132.51C258.257 115.343 270.492 106.538 289.519 106.952C328.529 107.801 367.829 105.52 406.494 109.513C457.262 114.754 501.684 159.877 506.161 210.667C512.255 279.796 509.911 349.307 507.201 418.588C506.063 447.702 485.627 462.187 454.87 460.924C423.648 459.641 408.567 445.126 408.101 413.13C407.333 360.375 406.894 307.586 407.966 254.845C408.55 226.106 397.518 207.939 369.458 201.049C340.077 193.834 326.158 211.829 316.052 234.934C289.456 295.743 263.018 356.621 236.726 417.562C225.114 444.477 206.33 459.012 175.706 458.632C145.441 458.255 129.671 440.54 118.692 415.921C81.3141 332.114 44.2045 248.186 6.9454 164.326C0.424334 149.649 -4.6829 135.019 6.89295 117.968Z" fill="#6AC299"/>
<path d="M713.195 218.775C711.806 257.179 712.245 293.344 710.728 329.426C709.911 348.853 717.933 357.141 736.131 361.631C772.378 370.575 785.072 390.253 779.596 424.598C775.371 451.099 758.408 462.267 722.791 461.995C660.756 461.522 614.276 415.238 613.463 352.542C612.981 315.417 612.621 278.266 613.51 241.158C614.017 219.961 608.761 208.839 584.308 208.706C554.855 208.545 542.72 190.189 543.005 153.671C543.257 121.321 554.395 107.256 585.402 106.8C607.589 106.473 615.388 97.7005 613.443 76.7707C612.632 68.0538 613.226 59.1935 613.386 50.4018C614.076 12.6882 626.341 -0.0471265 661.794 0.000130957C697.064 0.0477403 710.228 13.4271 711.05 50.1158C711.16 54.9992 711.114 59.8866 711.131 64.7721C711.268 104.278 711.268 104.278 750.087 106.08C779.382 107.44 798.61 127.949 797.985 157.168C797.324 188.117 779.818 206.61 749.986 208.803C737.802 209.698 724.198 205.058 713.195 218.775Z" fill="#6AC299"/>
</svg>
